<svg width="262" height="235" viewBox="0 0 262 235" fill="none" xmlns="http://www.w3.org/2000/svg">
<path fill-rule="evenodd" clip-rule="evenodd" d="M194.131 208.556C195.41 207.832 196.69 207.108 198.132 206.707C196.421 207.78 194.599 208.665 192.697 209.346C193.181 209.094 193.656 208.825 194.131 208.556ZM198.169 206.692L198.92 206.52C194.892 208.95 190.59 210.891 186.103 212.304C179.728 214.25 173.1 215.247 166.433 215.261C159.904 215.264 153.382 214.806 146.917 213.891C137.469 212.629 128.012 211.489 118.467 211.242C110.608 210.988 102.778 212.288 95.4253 215.068C92.5069 216.18 89.6107 217.34 86.7123 218.702C86.7495 218.314 86.9777 218.211 87.2351 218.094C87.4312 218.005 87.6443 217.909 87.803 217.673C87.5291 217.806 87.2434 217.913 86.9733 218.014C86.4126 218.223 85.9184 218.408 85.7329 218.757C85.4691 219.374 84.8904 219.798 84.2227 219.864C82.6962 219.81 81.5259 220.541 80.3608 221.269C79.8303 221.601 79.3009 221.932 78.7394 222.187C78.0522 222.5 77.4561 222.972 76.8555 223.448C76.2121 223.958 75.5636 224.471 74.7925 224.798C74.1782 225.057 73.5867 225.362 72.9948 225.667C71.7614 226.303 70.5265 226.939 69.081 227.17C68.1255 227.323 67.195 228.106 66.3526 228.84C65.5733 229.519 64.45 230.166 63.4758 230.168C62.4643 230.17 61.6434 230.581 60.8248 230.991L60.8246 230.991C60.3168 231.246 59.8098 231.499 59.2587 231.655C55.7484 232.685 52.1795 233.504 48.5709 234.107C43.4162 234.866 38.1955 235.081 32.9947 234.748C24.3485 234.282 17.1143 230.593 10.7408 224.992C4.3571 219.38 0.797135 212.389 0.625987 203.779L0.622585 203.609C0.532951 199.131 0.443337 194.655 0.750796 190.185C0.926743 187.287 1.48068 184.424 2.39851 181.67C3.1744 179.399 3.2343 177.056 3.29415 174.716L3.29421 174.714C3.29894 174.529 3.30368 174.344 3.30877 174.158C3.49195 167.497 4.35076 160.955 6.63515 154.663C8.94265 148.31 12.5846 142.756 17.0467 137.736C22.9797 131.061 30.172 125.977 37.7384 121.33L38.1848 121.056L38.1848 121.056C48.9227 114.463 59.6714 107.863 69.0736 99.3613C75.7919 93.2863 81.9385 86.7121 86.6129 78.8763C88.6813 75.409 89.894 71.6289 90.9303 67.7524C91.5864 65.2986 92.1889 62.8304 92.7914 60.3623C93.8667 55.9577 94.942 51.5532 96.3211 47.2307C97.8671 42.3861 99.559 37.5881 102.11 33.1614C106.58 25.4034 111.942 18.3341 118.998 12.7572C126.56 6.7808 134.881 2.31297 144.665 1.19887C153.977 0.138831 162.691 1.61501 170.202 7.63996C174.308 10.9361 177.203 15.2438 179.514 19.9206C181.6 24.1424 183.475 28.461 185.349 32.7801L185.349 32.7803L185.349 32.7805L185.349 32.7807L185.349 32.781L185.35 32.7812L185.35 32.7814L185.35 32.7816L185.35 32.7818L185.35 32.782C187.288 37.2478 189.226 41.714 191.4 46.074C191.899 47.0763 192.392 48.0821 192.885 49.0878C195.25 53.9139 197.614 58.7387 200.714 63.1634C205.288 69.6963 211.427 74.2874 218.595 77.624C221.625 79.0368 224.695 80.3595 227.765 81.6823L227.769 81.6838C229.576 82.4625 231.383 83.2413 233.182 84.0385C239.007 86.6191 244.645 89.5319 249.643 93.5558C258.427 100.627 262.07 109.946 261.648 121.025C261.358 127.47 260.097 133.833 257.907 139.899C257.131 142.108 256.214 144.254 255.3 146.394C255.14 146.767 254.981 147.14 254.823 147.514C253.846 149.815 252.643 152.013 251.231 154.075C250.644 154.93 250.154 155.848 249.661 156.77L249.661 156.771L249.661 156.771C249.206 157.623 248.749 158.478 248.213 159.289C244.194 165.423 239.77 171.281 234.972 176.825C232.082 180.141 228.968 183.232 225.834 186.295C223.327 188.745 220.673 191.05 217.917 193.255C217.245 193.793 216.575 194.337 215.905 194.882C214.309 196.18 212.71 197.48 211.06 198.703C210.408 199.186 209.669 199.543 208.925 199.902C208.237 200.235 207.544 200.569 206.91 201.009C204.31 202.872 201.577 204.541 198.733 206.002C198.445 206.142 198.169 206.309 198.169 206.692ZM138.554 8.4112L138.426 8.26192C138.049 8.42339 137.669 8.57747 137.288 8.73156C136.453 9.06965 135.618 9.40773 134.824 9.82375C134.533 9.97588 134.243 10.1272 133.952 10.2785C130.472 12.0909 127.004 13.8972 124.334 16.9772C123.993 17.3713 123.546 17.6896 123.088 18.0154C122.529 18.4131 121.954 18.8219 121.538 19.3933C121.024 20.0997 120.379 20.6675 119.728 21.2407C119.067 21.8227 118.4 22.4102 117.857 23.154C116.194 25.4297 114.447 27.6768 112.601 29.8183C111.781 30.7699 111.156 31.8323 110.532 32.8927L110.531 32.8929L110.531 32.8931C110.224 33.4152 109.917 33.9367 109.587 34.4443C108.862 35.7011 108.207 36.9971 107.625 38.3263C106.403 40.7245 105.386 43.2218 104.584 45.7917C103.792 48.3925 103.105 51.0391 102.455 53.6883C102.202 54.7205 101.965 55.7578 101.729 56.7953C101.367 58.385 101.005 59.9749 100.582 61.5471C99.7379 64.5905 99.0921 67.6857 98.6482 70.8131C98.5384 71.6299 98.2699 72.3798 98.0012 73.1304L98.0011 73.1305C97.7571 73.812 97.5128 74.4941 97.3871 75.2274C97.2213 76.5757 96.8959 77.8993 96.4176 79.1703C95.4613 81.4244 94.3379 83.6036 93.0569 85.6897C88.7219 92.6343 83.2666 98.6266 77.2364 104.107C76.9498 104.368 76.6656 104.632 76.381 104.896L76.3809 104.896L76.3808 104.896L76.3808 104.896L76.3807 104.897L76.3806 104.897L76.3805 104.897L76.3804 104.897L76.3803 104.897C74.8202 106.346 73.2527 107.802 71.2617 108.708C70.5083 109.003 69.8221 109.447 69.2443 110.013C68.2185 111.144 67.0224 112.109 65.699 112.87C64.1757 113.77 62.7265 114.777 61.2763 115.784L61.2763 115.784C60.0935 116.606 58.91 117.428 57.6851 118.193C53.2711 120.95 48.8354 123.667 44.27 126.157C42.9974 126.851 41.7752 127.624 40.5524 128.397L40.5524 128.397L40.5523 128.397L40.5522 128.397L40.5522 128.397L40.5521 128.397L40.5521 128.397L40.552 128.397L40.5519 128.397L40.5519 128.397C39.1058 129.312 37.659 130.226 36.1272 131.012C34.8351 131.675 33.704 132.657 32.5749 133.637C32.1241 134.028 31.6735 134.419 31.2131 134.79C23.5851 140.926 17.4712 148.221 14.2369 157.604C14.0483 158.152 13.7006 158.553 13.358 158.949C12.9559 159.413 12.5609 159.869 12.438 160.544C11.4158 166.166 10.3167 171.773 8.98163 177.333C8.06346 181.158 8.01914 185.051 7.9748 188.945C7.95141 191 7.92801 193.056 7.77618 195.101L7.76871 195.203L7.76212 195.295L7.76203 195.296C7.68941 196.308 7.68551 196.362 6.85617 197.345C6.7914 197.422 6.80669 197.571 6.8214 197.714C6.8269 197.767 6.83231 197.82 6.83344 197.868C6.86012 199.029 6.85408 200.192 6.84804 201.354C6.83569 203.731 6.82334 206.108 7.09074 208.475C7.13161 208.836 7.16786 209.198 7.20414 209.561C7.38956 211.413 7.57568 213.273 8.38079 214.991C11.737 222.144 17.4453 226.403 25.0031 228.258C29.2641 229.303 33.6276 229.382 37.9903 229.258C46.9453 229.031 55.7484 226.907 63.8198 223.026C67.0788 221.466 70.2916 219.815 73.5047 218.164C78.3061 215.697 83.1083 213.229 88.0665 211.064C96.1164 207.478 104.804 205.541 113.617 205.369C124.308 205.189 134.895 206.397 145.477 207.697C152.733 208.587 160.008 209.217 167.325 208.792C177.618 208.193 187.107 205.042 195.97 199.82C201.326 196.678 206.46 193.171 211.335 189.323C224.678 178.756 236.254 166.523 245.679 152.293C249.977 145.804 253.545 138.983 255.481 131.386C256.785 126.263 257.723 121.099 257.381 115.776C257.18 112.652 256.558 109.647 254.756 107.009C252.554 103.772 249.787 100.958 246.588 98.7031C240.783 94.6046 234.304 91.8468 227.823 89.0881C227.035 88.7526 226.246 88.417 225.459 88.079C218.34 85.0216 211.303 81.8701 205.485 76.4736C202.138 73.42 199.245 69.9021 196.895 66.0274C191.16 56.4341 186.889 46.1396 182.62 35.8495L182.619 35.8488L182.115 34.6335C181.537 33.2419 180.994 31.8357 180.45 30.4295L180.45 30.4292C179.063 26.8427 177.676 23.2565 175.727 19.9137C173.906 16.7938 171.795 13.9185 168.891 11.7053C163.711 7.86869 157.356 5.96398 150.926 6.32091C150.747 6.34992 150.565 6.34467 150.388 6.30546C148.611 5.70088 146.967 6.23025 145.319 6.76066L145.318 6.76092C145.154 6.81352 144.991 6.86615 144.827 6.91767C144.713 6.95356 144.593 6.99875 144.471 7.04461C144.091 7.18776 143.694 7.33743 143.399 7.23128C142.626 6.95381 142.004 7.26112 141.371 7.5742C140.857 7.82804 140.335 8.08567 139.72 8.03853C139.385 8.01303 138.952 8.27119 138.482 8.55158C138.103 8.77788 137.699 9.01867 137.303 9.13651L138.554 8.4112ZM87.5164 212.746C92.0735 210.657 96.8653 209.122 101.789 208.176C96.3328 209.653 91.0198 211.615 85.9132 214.038C81.5528 216.052 77.2902 218.259 73.0276 220.467C70.9515 221.542 68.8753 222.617 66.7879 223.67C64.766 224.735 62.6545 225.621 60.4777 226.317C60.8029 225.661 61.3646 225.529 61.9103 225.402C62.1767 225.34 62.4394 225.278 62.6688 225.157C64.146 224.377 65.6412 223.63 67.1362 222.883C68.547 222.178 69.9576 221.473 71.3528 220.741C76.6775 217.946 82.0315 215.213 87.5164 212.746ZM133.328 5.77402C138.571 3.83553 144.061 2.64309 149.636 2.23153C143.988 2.02009 138.378 3.23853 133.328 5.77402ZM71.6573 100.086C76.6593 96.023 81.0266 91.2344 84.6147 85.879C80.5583 90.8548 76.1758 95.532 71.6573 100.086ZM14.5109 144.048C11.148 148.717 8.26117 153.62 7.22571 159.397C9.05931 154.018 11.5037 148.868 14.5109 144.048ZM176.413 209.219L176.413 209.218C181.636 207.864 186.859 206.509 191.69 203.984C186.493 207.072 180.695 209.01 174.684 209.669C175.255 209.519 175.826 209.371 176.397 209.223L176.413 209.219ZM126.129 9.22692C126.298 9.30493 126.417 9.36656 126.501 9.41027C126.622 9.47261 126.672 9.49846 126.695 9.48334C128.423 8.31968 130.27 7.34301 132.204 6.56971C132.294 6.55025 132.372 6.49461 132.419 6.41588C132.467 6.33715 132.48 6.24226 132.455 6.15354C132.361 5.85356 132.105 5.88552 131.91 5.99366C130.453 6.80005 129.001 7.61507 127.456 8.48257L127.453 8.48374L127.451 8.48524C127.018 8.72803 126.578 8.97494 126.129 9.22692ZM88.0663 91.3814C89.7945 89.6185 91.24 87.5988 92.3516 85.3936L88.0663 91.3814ZM79.3402 220.921C81.6893 220.254 82.6222 219.554 82.4957 218.359C82.3747 219.558 81.6353 219.781 80.861 220.015C80.2977 220.185 79.7158 220.36 79.3402 220.921ZM75.7481 223.863L75.7948 224.029L70.9984 226.368L70.9239 226.216L75.7481 223.863Z" fill="#9EAD8D"/>
</svg>
